# xmcd CD database file
#
# Track frame offsets:
#	182
#	14602
#	25777
#	44760
#	56715
#	72527
#	94010
#	109927
#	127830
#	138785
#	155165
#
# Disc length: 2309 seconds
#
# Revision: 8
# Processed by: cddbd v1.5.2PL0 Copyright (c) Steve Scherf et al.
# Submitted via: CDex 1.79
#
DISCID=9b09030b
DTITLE=Doug Supernaw - You Still Got Me
DYEAR=1995
DGENRE=Country
TTITLE0=Not Enough Hours In The Night
TTITLE1=She Never Looks Back
TTITLE2=You Still Got Me
TTITLE3=Country Conscience
TTITLE4=Daddy Made The Dollars (Mamma Made The Sense)
TTITLE5=Roots And Wings
TTITLE6=We' re All Here
TTITLE7=A Fire In The Rain
TTITLE8=Time Off From Good Behavior
TTITLE9=The Note
TTITLE10=What In The World
EXTD=YEAR: 1995
EXTT0=
EXTT1=
EXTT2=
EXTT3=
EXTT4=
EXTT5=
EXTT6=
EXTT7=
EXTT8=
EXTT9=
EXTT10=
PLAYORDER=
